<svg id="Layer_1" data-name="Layer 1" xmlns="http://www.w3.org/2000/svg" height="575.26px" width="575.26px" viewBox="0 0 364.33 364.33"><defs><style>.cls-1{fill:#fff;}.cls-2{fill:#003d6f;}.cls-3{fill:#a9dae4;}.cls-4{fill:#a8a8ac;}.cls-5{fill:#f9c81d;}</style></defs><path class="cls-1" d="M470.33,287.83A182.16,182.16,0,1,1,288.17,105.67,182.16,182.16,0,0,1,470.33,287.83" transform="translate(-106.01 -105.67)"/><path class="cls-2" d="M457.51,287.83A169.34,169.34,0,1,1,288.17,118.49,169.34,169.34,0,0,1,457.51,287.83" transform="translate(-106.01 -105.67)"/><path class="cls-1" d="M446.33,287.83A158.16,158.16,0,1,1,288.17,129.67,158.16,158.16,0,0,1,446.33,287.83" transform="translate(-106.01 -105.67)"/><path class="cls-3" d="M133.74,322.07c.36-.24,173.38-114.1,270.5-37.75,0,0-109.28-22.74-116.07,43-3,28.72,13.41,53.43,40.62,60.95,35.08,9.69,83.57-2.62,83.65-2.64a158.18,158.18,0,0,1-278.7-63.6" transform="translate(-106.01 -105.67)"/><path class="cls-4" d="M394.1,309l-38.7,27.09,18.39,18.86c-32.9,37.25-65.91,35.31-65.91,35.31-7.26-58.59-5.54-113.58-3.18-147h59.41V227.7H306C307,216.44,307.88,210,307.88,210a32.65,32.65,0,1,0-36.51,0s.88,6.41,1.92,17.67H215.13v15.48h59.42c2.35,33.46,4.07,88.45-3.18,147,0,0-33,1.94-65.91-35.31l18.38-18.86L185.15,309s-5,30.88,11.61,62.88c11.92,23,36,47.38,72.3,54.23,0,0,15,2.15,20.08,2.17,5.31,0,21-2.17,21-2.17,36.3-6.85,60.38-31.24,72.31-54.23,16.6-32,11.61-62.88,11.61-62.88m-125-126a20.56,20.56,0,1,1,20.56,20.56A20.57,20.57,0,0,1,269.06,183Z" transform="translate(-106.01 -105.67)"/><path class="cls-5" d="M391.2,306.06l-38.7,27.09L370.88,352C338,389.25,305,387.32,305,387.32c-7.26-58.59-5.55-113.58-3.18-147h59.4V224.8H303.05c1.05-11.26,1.93-17.67,1.93-17.67a32.66,32.66,0,1,0-36.51,0s.87,6.41,1.92,17.67H212.23v15.48h59.41c2.36,33.46,4.07,88.45-3.17,147,0,0-33,1.93-65.91-35.31l18.38-18.86-38.69-27.09s-5,30.88,11.6,62.88c11.92,23,36,47.38,72.31,54.22,0,0,15,2.16,20.08,2.18,5.31,0,21-2.18,21-2.18,36.29-6.84,60.38-31.24,72.31-54.22,16.6-32,11.61-62.88,11.61-62.88m-125-126a20.56,20.56,0,1,1,20.56,20.56A20.57,20.57,0,0,1,266.16,180.06Z" transform="translate(-106.01 -105.67)"/></svg>